<?xml version="1.0" encoding="utf-8"?>
<!-- Generator: Adobe Illustrator 25.2.1, SVG Export Plug-In . SVG Version: 6.00 Build 0) -->
<svg version="1.1" id="Layer_1" xmlns="http://www.w3.org/2000/svg" xmlns:xlink="http://www.w3.org/1999/xlink" x="0px" y="0px"
	 viewBox="0 0 128 128" style="enable-background:new 0 0 128 128;" xml:space="preserve">
<style type="text/css">
	.st0{fill:#220049;}
	.st1{fill:#9999FF;}
</style>
<g>
	<path class="st0" d="M114.8,1.7H13.2C6.7,1.7,1.3,7.1,1.3,13.6v100.7c0,6.5,5.4,11.9,11.9,11.9h101.6c6.5,0,11.9-5.4,11.9-11.9V13.6
		C126.7,7.1,121.3,1.7,114.8,1.7z"/>
	<path class="st1" d="M53.3,79.5H33.5v21.4H23V27.1h30.3v10.9H53.3V79.5z M53.3,39.7H33.5v19.4H53.3V39.7z M92.7,71.3
		c0,5.2-1.4,9.4-4.2,12.5c-2.8,3.2-6.8,4.8-12,4.8c-4.4,0-7.8-0.8-10.1-2.3c-2.4-1.5-3.9-3.5-4.8-6h9.9c0.3,1,0.8,1.8,1.5,2.4
		c0.7,0.6,1.7,1,3,1c1.5,0,2.6-0.4,3.4-1.3c0.8-0.8,1.2-2.1,1.2-3.9v-1.4c-0.7,0.5-1.4,0.9-2.2,1.1c-0.8,0.3-1.7,0.4-2.7,0.4
		c-3.1,0-5.6-1.1-7.4-3.4c-1.9-2.2-2.8-5.4-2.8-9.3c0-3.7,0.9-6.7,2.8-9c1.9-2.4,4.4-3.5,7.7-3.5c1.4,0,2.7,0.2,3.9,0.5
		c1.2,0.3,2.3,0.8,3.2,1.6c0.9,0.7,1.7,1.6,2.3,2.6c0.6,1,1,2.1,1.2,3.2C92.6,67.7,92.7,69.4,92.7,71.3z M82.5,66.9
		c0-2.4-0.3-4.1-0.9-5.2c-0.6-1.1-1.5-1.6-2.7-1.6c-1.3,0-2.3,0.6-3,1.7c-0.7,1.2-1,2.8-1,5c0,2.3,0.3,4,1,5.1
		c0.7,1.1,1.7,1.7,3.1,1.7c1.2,0,2.1-0.5,2.8-1.6C82.2,70.8,82.5,69.1,82.5,66.9z"/>
</g>
</svg>
